# xmcd
#
# Track frame offsets: 
#        150
#        21701
#        38953
#        61699
#        78812
#        98068
#        115822
#        131631
#        149384
#        167963
#
# Disc length: 2505 seconds
#
# Revision: 0
# Processed by: cddbd v1.5.2PL0 Copyright (c) Steve Scherf et al.
# Submitted via: ExactAudioCopy v0.90b4
#
DISCID=8509c70a
DTITLE=Teodoro Reyes - Haciendo El Amor
DYEAR=2006
DGENRE=Latin
TTITLE0=No Te Mates Por Ella
TTITLE1=Hombre Enamorado
TTITLE2=Haciendo El Amor
TTITLE3=Prueba De Amor
TTITLE4=Buscando Mi Hembra
TTITLE5=Sufriendo
TTITLE6=Que Quieres Que Haga
TTITLE7=Esperare
TTITLE8=Ojos Del Alma
TTITLE9=El Jueguito
EXTD=
EXTT0=
EXTT1=
EXTT2=
EXTT3=
EXTT4=
EXTT5=
EXTT6=
EXTT7=
EXTT8=
EXTT9=
PLAYORDER=
